<svg xmlns="http://www.w3.org/2000/svg" xmlns:xlink="http://www.w3.org/1999/xlink" width="64" zoomAndPan="magnify" viewBox="0 0 48 48" height="64" preserveAspectRatio="xMidYMid meet" version="1.2"><defs><clipPath id="c8c25c6669"><path d="M 5.191406 20 L 42.660156 20 L 42.660156 42.171875 L 5.191406 42.171875 Z M 5.191406 20 "/></clipPath><clipPath id="5404b053ac"><path d="M 5.191406 4.703125 L 42.660156 4.703125 L 42.660156 18 L 5.191406 18 Z M 5.191406 4.703125 "/></clipPath></defs><g id="6f5349f2a5"><g clip-rule="nonzero" clip-path="url(#c8c25c6669)"><path style=" stroke:none;fill-rule:nonzero;fill:#ff6b35;fill-opacity:1;" d="M 42.035156 37.175781 L 40.164062 37.175781 L 40.164062 33.429688 C 40.164062 32.804688 40.070312 32.195312 39.886719 31.597656 C 39.703125 31 39.4375 30.445312 39.085938 29.925781 C 38.734375 29.410156 38.316406 28.957031 37.828125 28.566406 C 37.34375 28.175781 36.808594 27.863281 36.230469 27.632812 C 36.433594 27.472656 36.617188 27.296875 36.785156 27.097656 C 36.949219 26.898438 37.097656 26.6875 37.21875 26.457031 C 37.339844 26.230469 37.4375 25.992188 37.511719 25.746094 C 37.585938 25.496094 37.632812 25.242188 37.652344 24.984375 C 37.675781 24.726562 37.667969 24.46875 37.636719 24.214844 C 37.601562 23.957031 37.542969 23.707031 37.460938 23.460938 C 37.375 23.21875 37.265625 22.984375 37.132812 22.761719 C 37.003906 22.539062 36.847656 22.332031 36.671875 22.144531 C 36.496094 21.953125 36.304688 21.78125 36.09375 21.632812 C 35.882812 21.480469 35.660156 21.355469 35.421875 21.25 C 35.183594 21.148438 34.941406 21.070312 34.6875 21.015625 C 34.433594 20.964844 34.175781 20.9375 33.917969 20.9375 C 33.660156 20.9375 33.402344 20.964844 33.148438 21.015625 C 32.898438 21.070312 32.652344 21.148438 32.414062 21.25 C 32.179688 21.355469 31.953125 21.480469 31.742188 21.632812 C 31.53125 21.78125 31.339844 21.953125 31.164062 22.144531 C 30.988281 22.332031 30.835938 22.539062 30.703125 22.761719 C 30.570312 22.984375 30.460938 23.21875 30.375 23.460938 C 30.292969 23.707031 30.234375 23.957031 30.199219 24.214844 C 30.167969 24.46875 30.164062 24.726562 30.183594 24.984375 C 30.203125 25.242188 30.25 25.496094 30.324219 25.746094 C 30.398438 25.992188 30.496094 26.230469 30.617188 26.457031 C 30.742188 26.6875 30.886719 26.898438 31.050781 27.097656 C 31.21875 27.296875 31.402344 27.472656 31.609375 27.632812 C 31.027344 27.863281 30.496094 28.175781 30.007812 28.566406 C 29.519531 28.957031 29.101562 29.410156 28.75 29.925781 C 28.402344 30.445312 28.132812 31 27.949219 31.597656 C 27.765625 32.195312 27.675781 32.804688 27.671875 33.429688 L 27.671875 37.175781 L 20.179688 37.175781 L 20.179688 33.429688 C 20.179688 32.804688 20.085938 32.195312 19.902344 31.597656 C 19.71875 31 19.453125 30.445312 19.101562 29.925781 C 18.75 29.410156 18.332031 28.957031 17.84375 28.566406 C 17.359375 28.175781 16.824219 27.863281 16.246094 27.632812 C 16.449219 27.472656 16.632812 27.296875 16.800781 27.097656 C 16.96875 26.898438 17.113281 26.6875 17.234375 26.457031 C 17.355469 26.230469 17.457031 25.992188 17.527344 25.746094 C 17.601562 25.496094 17.648438 25.242188 17.667969 24.984375 C 17.691406 24.726562 17.683594 24.46875 17.652344 24.214844 C 17.621094 23.957031 17.5625 23.707031 17.476562 23.460938 C 17.390625 23.21875 17.285156 22.984375 17.152344 22.761719 C 17.019531 22.539062 16.863281 22.332031 16.6875 22.144531 C 16.511719 21.953125 16.320312 21.78125 16.109375 21.632812 C 15.898438 21.480469 15.675781 21.355469 15.4375 21.25 C 15.199219 21.148438 14.957031 21.070312 14.703125 21.015625 C 14.449219 20.964844 14.195312 20.9375 13.933594 20.9375 C 13.675781 20.9375 13.421875 20.964844 13.167969 21.015625 C 12.914062 21.070312 12.667969 21.148438 12.429688 21.25 C 12.195312 21.355469 11.96875 21.480469 11.761719 21.632812 C 11.550781 21.78125 11.355469 21.953125 11.179688 22.144531 C 11.003906 22.332031 10.851562 22.539062 10.71875 22.761719 C 10.585938 22.984375 10.476562 23.21875 10.394531 23.460938 C 10.308594 23.707031 10.25 23.957031 10.21875 24.214844 C 10.183594 24.46875 10.179688 24.726562 10.199219 24.984375 C 10.222656 25.242188 10.269531 25.496094 10.339844 25.746094 C 10.414062 25.992188 10.511719 26.230469 10.632812 26.457031 C 10.757812 26.6875 10.902344 26.898438 11.070312 27.097656 C 11.234375 27.296875 11.421875 27.472656 11.625 27.632812 C 11.042969 27.863281 10.511719 28.175781 10.023438 28.566406 C 9.539062 28.957031 9.117188 29.410156 8.769531 29.925781 C 8.417969 30.445312 8.148438 31 7.964844 31.597656 C 7.78125 32.195312 7.691406 32.804688 7.691406 33.429688 L 7.691406 37.175781 L 5.816406 37.175781 C 5.644531 37.175781 5.496094 37.238281 5.375 37.359375 C 5.253906 37.480469 5.191406 37.628906 5.191406 37.800781 L 5.191406 41.546875 C 5.191406 41.71875 5.253906 41.867188 5.375 41.988281 C 5.496094 42.109375 5.644531 42.171875 5.816406 42.171875 L 42.035156 42.171875 C 42.210938 42.171875 42.355469 42.109375 42.476562 41.988281 C 42.601562 41.867188 42.660156 41.71875 42.660156 41.546875 L 42.660156 37.800781 C 42.660156 37.628906 42.601562 37.480469 42.476562 37.359375 C 42.355469 37.238281 42.210938 37.175781 42.035156 37.175781 Z M 31.421875 24.6875 C 31.421875 24.355469 31.484375 24.035156 31.609375 23.730469 C 31.738281 23.421875 31.917969 23.152344 32.152344 22.917969 C 32.386719 22.683594 32.65625 22.503906 32.960938 22.378906 C 33.269531 22.25 33.585938 22.1875 33.917969 22.1875 C 34.25 22.1875 34.566406 22.25 34.875 22.378906 C 35.179688 22.503906 35.449219 22.683594 35.683594 22.917969 C 35.917969 23.152344 36.097656 23.421875 36.226562 23.730469 C 36.351562 24.035156 36.417969 24.355469 36.417969 24.6875 C 36.417969 25.015625 36.351562 25.335938 36.226562 25.640625 C 36.097656 25.949219 35.917969 26.21875 35.683594 26.453125 C 35.449219 26.6875 35.179688 26.867188 34.875 26.992188 C 34.566406 27.121094 34.25 27.183594 33.917969 27.183594 C 33.585938 27.183594 33.269531 27.121094 32.960938 26.992188 C 32.65625 26.867188 32.386719 26.6875 32.152344 26.453125 C 31.917969 26.21875 31.738281 25.949219 31.609375 25.640625 C 31.484375 25.335938 31.421875 25.015625 31.421875 24.6875 Z M 28.921875 33.429688 C 28.921875 33.101562 28.953125 32.777344 29.019531 32.453125 C 29.082031 32.132812 29.175781 31.820312 29.304688 31.515625 C 29.429688 31.214844 29.582031 30.925781 29.765625 30.652344 C 29.945312 30.378906 30.152344 30.128906 30.386719 29.894531 C 30.617188 29.664062 30.871094 29.457031 31.144531 29.273438 C 31.414062 29.09375 31.703125 28.9375 32.007812 28.8125 C 32.308594 28.6875 32.621094 28.59375 32.945312 28.527344 C 33.265625 28.464844 33.589844 28.433594 33.917969 28.433594 C 34.246094 28.433594 34.570312 28.464844 34.894531 28.527344 C 35.214844 28.59375 35.527344 28.6875 35.832031 28.8125 C 36.132812 28.9375 36.421875 29.09375 36.695312 29.273438 C 36.964844 29.457031 37.21875 29.664062 37.449219 29.894531 C 37.683594 30.128906 37.890625 30.378906 38.074219 30.652344 C 38.253906 30.925781 38.410156 31.214844 38.535156 31.515625 C 38.660156 31.820312 38.753906 32.132812 38.816406 32.453125 C 38.882812 32.777344 38.914062 33.101562 38.914062 33.429688 L 38.914062 37.175781 L 37.507812 37.175781 L 38.289062 32.917969 C 38.324219 32.726562 38.28125 32.554688 38.160156 32.40625 C 38.03125 32.25 37.867188 32.175781 37.664062 32.179688 L 30.171875 32.179688 C 29.976562 32.179688 29.816406 32.253906 29.691406 32.40625 C 29.566406 32.554688 29.523438 32.726562 29.558594 32.917969 L 30.328125 37.175781 L 28.921875 37.175781 Z M 36.914062 33.429688 L 36.234375 37.175781 L 31.601562 37.175781 L 30.921875 33.429688 Z M 11.4375 24.6875 C 11.4375 24.355469 11.5 24.035156 11.625 23.730469 C 11.753906 23.421875 11.933594 23.152344 12.167969 22.917969 C 12.402344 22.683594 12.671875 22.503906 12.980469 22.378906 C 13.285156 22.25 13.601562 22.1875 13.933594 22.1875 C 14.265625 22.1875 14.585938 22.25 14.890625 22.378906 C 15.195312 22.503906 15.464844 22.683594 15.699219 22.917969 C 15.933594 23.152344 16.117188 23.421875 16.242188 23.730469 C 16.371094 24.035156 16.433594 24.355469 16.433594 24.6875 C 16.433594 25.015625 16.371094 25.335938 16.242188 25.640625 C 16.117188 25.949219 15.933594 26.21875 15.699219 26.453125 C 15.464844 26.6875 15.195312 26.867188 14.890625 26.992188 C 14.585938 27.121094 14.265625 27.183594 13.933594 27.183594 C 13.601562 27.183594 13.285156 27.121094 12.980469 26.992188 C 12.671875 26.867188 12.402344 26.6875 12.167969 26.453125 C 11.933594 26.21875 11.753906 25.949219 11.625 25.640625 C 11.5 25.335938 11.4375 25.015625 11.4375 24.6875 Z M 8.9375 33.429688 C 8.9375 33.101562 8.972656 32.777344 9.035156 32.453125 C 9.097656 32.132812 9.195312 31.820312 9.320312 31.515625 C 9.445312 31.214844 9.597656 30.925781 9.78125 30.652344 C 9.964844 30.378906 10.171875 30.128906 10.402344 29.894531 C 10.632812 29.664062 10.886719 29.457031 11.160156 29.273438 C 11.433594 29.09375 11.71875 28.9375 12.023438 28.8125 C 12.324219 28.6875 12.636719 28.59375 12.960938 28.527344 C 13.28125 28.464844 13.605469 28.433594 13.933594 28.433594 C 14.261719 28.433594 14.585938 28.464844 14.910156 28.527344 C 15.230469 28.59375 15.542969 28.6875 15.847656 28.8125 C 16.148438 28.9375 16.4375 29.09375 16.710938 29.273438 C 16.984375 29.457031 17.234375 29.664062 17.46875 29.894531 C 17.699219 30.128906 17.90625 30.378906 18.089844 30.652344 C 18.269531 30.925781 18.425781 31.214844 18.550781 31.515625 C 18.675781 31.820312 18.769531 32.132812 18.835938 32.453125 C 18.898438 32.777344 18.929688 33.101562 18.929688 33.429688 L 18.929688 37.175781 L 17.527344 37.175781 L 18.304688 32.917969 C 18.34375 32.726562 18.296875 32.554688 18.175781 32.40625 C 18.046875 32.25 17.882812 32.175781 17.679688 32.179688 L 10.1875 32.179688 C 9.992188 32.179688 9.832031 32.253906 9.707031 32.40625 C 9.582031 32.554688 9.539062 32.726562 9.574219 32.917969 L 10.34375 37.175781 L 8.9375 37.175781 Z M 16.933594 33.429688 L 16.25 37.175781 L 11.617188 37.175781 L 10.9375 33.429688 Z M 41.414062 40.921875 L 6.441406 40.921875 L 6.441406 38.425781 L 41.414062 38.425781 Z M 41.414062 40.921875 "/></g><g clip-rule="nonzero" clip-path="url(#5404b053ac)"><path style=" stroke:none;fill-rule:nonzero;fill:#ff6b35;fill-opacity:1;" d="M 42.035156 4.703125 L 5.816406 4.703125 C 5.644531 4.703125 5.496094 4.761719 5.375 4.886719 C 5.253906 5.007812 5.191406 5.152344 5.191406 5.328125 L 5.191406 7.824219 C 5.191406 7.996094 5.253906 8.144531 5.375 8.265625 C 5.496094 8.386719 5.644531 8.449219 5.816406 8.449219 L 13.308594 8.449219 L 13.308594 10.097656 L 10.332031 13.667969 C 10.160156 13.875 10.132812 14.09375 10.246094 14.335938 C 10.359375 14.574219 10.546875 14.695312 10.8125 14.695312 L 11.4375 14.695312 C 11.4375 15.023438 11.5 15.34375 11.625 15.648438 C 11.753906 15.957031 11.933594 16.226562 12.167969 16.460938 C 12.402344 16.695312 12.671875 16.875 12.980469 17 C 13.285156 17.128906 13.601562 17.191406 13.933594 17.191406 C 14.265625 17.191406 14.585938 17.128906 14.890625 17 C 15.195312 16.875 15.464844 16.695312 15.699219 16.460938 C 15.933594 16.226562 16.117188 15.957031 16.242188 15.648438 C 16.371094 15.34375 16.433594 15.023438 16.433594 14.695312 L 17.058594 14.695312 C 17.320312 14.695312 17.511719 14.574219 17.625 14.335938 C 17.734375 14.09375 17.707031 13.875 17.539062 13.667969 L 14.558594 10.097656 L 14.558594 8.449219 L 33.292969 8.449219 L 33.292969 10.097656 L 30.316406 13.667969 C 30.144531 13.875 30.117188 14.09375 30.230469 14.335938 C 30.34375 14.574219 30.53125 14.695312 30.796875 14.695312 L 31.421875 14.695312 C 31.421875 15.023438 31.484375 15.34375 31.609375 15.648438 C 31.738281 15.957031 31.917969 16.226562 32.152344 16.460938 C 32.386719 16.695312 32.65625 16.875 32.960938 17 C 33.269531 17.128906 33.585938 17.191406 33.917969 17.191406 C 34.25 17.191406 34.566406 17.128906 34.875 17 C 35.179688 16.875 35.449219 16.695312 35.683594 16.460938 C 35.917969 16.226562 36.097656 15.957031 36.226562 15.648438 C 36.351562 15.34375 36.417969 15.023438 36.417969 14.695312 L 37.039062 14.695312 C 37.304688 14.695312 37.496094 14.574219 37.605469 14.335938 C 37.71875 14.09375 37.691406 13.875 37.523438 13.667969 L 34.542969 10.097656 L 34.542969 8.449219 L 42.035156 8.449219 C 42.210938 8.449219 42.355469 8.386719 42.476562 8.265625 C 42.601562 8.144531 42.660156 7.996094 42.660156 7.824219 L 42.660156 5.328125 C 42.660156 5.152344 42.601562 5.007812 42.476562 4.886719 C 42.355469 4.761719 42.210938 4.703125 42.035156 4.703125 Z M 13.933594 15.941406 C 13.769531 15.941406 13.609375 15.910156 13.457031 15.847656 C 13.304688 15.785156 13.167969 15.695312 13.050781 15.578125 C 12.933594 15.460938 12.84375 15.324219 12.78125 15.171875 C 12.71875 15.019531 12.6875 14.859375 12.6875 14.695312 L 15.183594 14.695312 C 15.183594 14.859375 15.152344 15.019531 15.089844 15.171875 C 15.023438 15.324219 14.933594 15.460938 14.816406 15.578125 C 14.699219 15.695312 14.566406 15.785156 14.414062 15.847656 C 14.257812 15.910156 14.101562 15.941406 13.933594 15.941406 Z M 15.722656 13.445312 L 12.148438 13.445312 L 13.933594 11.296875 Z M 33.917969 15.941406 C 33.753906 15.941406 33.59375 15.910156 33.441406 15.847656 C 33.289062 15.785156 33.152344 15.695312 33.035156 15.578125 C 32.917969 15.460938 32.828125 15.324219 32.765625 15.171875 C 32.699219 15.019531 32.667969 14.859375 32.667969 14.695312 L 35.167969 14.695312 C 35.167969 14.859375 35.136719 15.019531 35.074219 15.171875 C 35.007812 15.324219 34.917969 15.460938 34.800781 15.578125 C 34.683594 15.695312 34.550781 15.785156 34.394531 15.847656 C 34.242188 15.910156 34.085938 15.941406 33.917969 15.941406 Z M 35.703125 13.445312 L 32.132812 13.445312 L 33.917969 11.296875 Z M 41.414062 7.199219 L 6.441406 7.199219 L 6.441406 5.949219 L 41.414062 5.949219 Z M 41.414062 7.199219 "/></g><path style=" stroke:none;fill-rule:nonzero;fill:#ff6b35;fill-opacity:1;" d="M 27.050781 21.75 C 26.84375 21.542969 26.625 21.355469 26.382812 21.195312 C 26.140625 21.03125 25.886719 20.890625 25.621094 20.78125 C 25.351562 20.667969 25.074219 20.582031 24.789062 20.523438 C 24.503906 20.46875 24.21875 20.4375 23.925781 20.4375 C 23.636719 20.4375 23.347656 20.46875 23.0625 20.523438 C 22.777344 20.582031 22.5 20.667969 22.234375 20.78125 C 21.964844 20.890625 21.710938 21.03125 21.46875 21.195312 C 21.230469 21.355469 21.007812 21.542969 20.804688 21.75 L 21.695312 22.625 C 21.992188 22.324219 22.332031 22.09375 22.71875 21.933594 C 23.105469 21.769531 23.507812 21.6875 23.925781 21.6875 C 24.347656 21.6875 24.75 21.769531 25.136719 21.933594 C 25.523438 22.09375 25.863281 22.324219 26.15625 22.625 Z M 27.050781 21.75 "/><path style=" stroke:none;fill-rule:nonzero;fill:#ff6b35;fill-opacity:1;" d="M 28.828125 19.941406 C 28.507812 19.613281 28.160156 19.324219 27.78125 19.066406 C 27.40625 18.808594 27.003906 18.59375 26.585938 18.417969 C 26.164062 18.242188 25.730469 18.109375 25.28125 18.015625 C 24.835938 17.925781 24.382812 17.882812 23.925781 17.882812 C 23.46875 17.882812 23.019531 17.925781 22.570312 18.015625 C 22.125 18.109375 21.6875 18.242188 21.269531 18.417969 C 20.847656 18.59375 20.449219 18.808594 20.070312 19.066406 C 19.691406 19.324219 19.34375 19.613281 19.023438 19.941406 L 19.910156 20.8125 C 20.171875 20.546875 20.457031 20.308594 20.765625 20.097656 C 21.078125 19.886719 21.402344 19.710938 21.75 19.566406 C 22.09375 19.421875 22.449219 19.3125 22.816406 19.238281 C 23.183594 19.164062 23.550781 19.125 23.925781 19.125 C 24.300781 19.125 24.671875 19.164062 25.039062 19.238281 C 25.402344 19.3125 25.757812 19.421875 26.105469 19.566406 C 26.449219 19.710938 26.777344 19.886719 27.085938 20.097656 C 27.394531 20.308594 27.679688 20.546875 27.941406 20.8125 Z M 28.828125 19.941406 "/><path style=" stroke:none;fill-rule:nonzero;fill:#ff6b35;fill-opacity:1;" d="M 30.613281 18.128906 C 30.179688 17.683594 29.703125 17.285156 29.1875 16.9375 C 28.671875 16.585938 28.128906 16.292969 27.554688 16.050781 C 26.980469 15.808594 26.386719 15.628906 25.777344 15.503906 C 25.164062 15.382812 24.550781 15.320312 23.925781 15.320312 C 23.304688 15.320312 22.6875 15.382812 22.078125 15.503906 C 21.464844 15.628906 20.875 15.808594 20.300781 16.050781 C 19.726562 16.292969 19.179688 16.585938 18.664062 16.9375 C 18.148438 17.285156 17.675781 17.683594 17.238281 18.128906 L 18.125 19.003906 C 18.503906 18.617188 18.914062 18.273438 19.363281 17.96875 C 19.808594 17.664062 20.28125 17.40625 20.78125 17.199219 C 21.277344 16.988281 21.792969 16.832031 22.320312 16.722656 C 22.851562 16.617188 23.386719 16.5625 23.925781 16.5625 C 24.46875 16.5625 25 16.617188 25.53125 16.722656 C 26.0625 16.832031 26.574219 16.988281 27.074219 17.199219 C 27.570312 17.40625 28.042969 17.664062 28.492188 17.96875 C 28.9375 18.273438 29.351562 18.617188 29.726562 19.003906 Z M 30.613281 18.128906 "/><path style=" stroke:none;fill-rule:nonzero;fill:#ff6b35;fill-opacity:1;" d="M 22.054688 24.6875 C 22.054688 24.933594 22.101562 25.171875 22.195312 25.402344 C 22.289062 25.632812 22.425781 25.835938 22.601562 26.011719 C 22.777344 26.1875 22.980469 26.320312 23.210938 26.417969 C 23.4375 26.511719 23.679688 26.558594 23.925781 26.558594 C 24.175781 26.558594 24.414062 26.511719 24.644531 26.417969 C 24.871094 26.320312 25.074219 26.1875 25.25 26.011719 C 25.425781 25.835938 25.5625 25.632812 25.65625 25.402344 C 25.753906 25.171875 25.800781 24.933594 25.800781 24.6875 C 25.800781 24.4375 25.753906 24.199219 25.65625 23.96875 C 25.5625 23.738281 25.425781 23.535156 25.25 23.359375 C 25.074219 23.183594 24.871094 23.050781 24.644531 22.953125 C 24.414062 22.859375 24.175781 22.8125 23.925781 22.8125 C 23.679688 22.8125 23.4375 22.859375 23.210938 22.953125 C 22.980469 23.050781 22.777344 23.183594 22.601562 23.359375 C 22.425781 23.535156 22.289062 23.738281 22.195312 23.96875 C 22.101562 24.199219 22.054688 24.4375 22.054688 24.6875 Z M 24.550781 24.6875 C 24.550781 24.859375 24.488281 25.003906 24.367188 25.128906 C 24.246094 25.25 24.097656 25.308594 23.925781 25.308594 C 23.753906 25.308594 23.605469 25.25 23.484375 25.128906 C 23.363281 25.003906 23.300781 24.859375 23.300781 24.6875 C 23.300781 24.511719 23.363281 24.367188 23.484375 24.242188 C 23.605469 24.121094 23.753906 24.0625 23.925781 24.0625 C 24.097656 24.0625 24.246094 24.121094 24.367188 24.242188 C 24.488281 24.367188 24.550781 24.511719 24.550781 24.6875 Z M 24.550781 24.6875 "/></g></svg>