<svg xmlns="http://www.w3.org/2000/svg" xmlns:xlink="http://www.w3.org/1999/xlink" width="64" zoomAndPan="magnify" viewBox="0 0 48 48" height="64" preserveAspectRatio="xMidYMid meet" version="1.2"><defs><clipPath id="5ea5f00b0f"><path d="M 5.191406 5 L 42 5 L 42 42.8125 L 5.191406 42.8125 Z M 5.191406 5 "/></clipPath><clipPath id="f9ca1c740a"><path d="M 5.191406 24 L 23 24 L 23 42 L 5.191406 42 Z M 5.191406 24 "/></clipPath></defs><g id="dff693a8aa"><g clip-rule="nonzero" clip-path="url(#5ea5f00b0f)"><path style=" stroke:none;fill-rule:nonzero;fill:#ff6b35;fill-opacity:1;" d="M 40.746094 37.800781 L 21.441406 20.601562 C 20.40625 19.667969 19.90625 18.28125 20.109375 16.90625 L 20.230469 16.082031 C 20.300781 15.625 20.132812 15.164062 19.792969 14.851562 L 9.953125 5.894531 L 9.238281 6.609375 L 16.878906 14.25 L 16.25 14.878906 L 8.609375 7.238281 L 7.886719 7.964844 L 15.527344 15.605469 L 14.898438 16.230469 L 7.257812 8.589844 L 6.53125 9.316406 L 14.171875 16.957031 L 13.542969 17.585938 L 5.902344 9.945312 L 5.191406 10.65625 L 14.144531 20.5 C 14.457031 20.839844 14.917969 21.007812 15.375 20.9375 L 16.199219 20.816406 C 17.574219 20.613281 18.960938 21.113281 19.894531 22.148438 L 37.09375 41.453125 C 37.125 41.488281 37.15625 41.519531 37.1875 41.550781 C 38.191406 42.554688 39.828125 42.566406 40.84375 41.550781 C 41.890625 40.503906 41.847656 38.789062 40.746094 37.800781 Z M 40.746094 37.800781 "/></g><g clip-rule="nonzero" clip-path="url(#f9ca1c740a)"><path style=" stroke:none;fill-rule:nonzero;fill:#ff6b35;fill-opacity:1;" d="M 9.769531 34.222656 C 8.761719 34.835938 7.828125 35.589844 7.09375 36.527344 C 6.5 37.28125 5.96875 38.207031 5.871094 39.167969 C 5.726562 40.554688 6.941406 41.769531 8.328125 41.625 C 9.292969 41.527344 10.21875 40.996094 10.96875 40.398438 C 11.902344 39.667969 12.652344 38.742188 13.265625 37.726562 C 15.179688 34.5625 19.371094 29.90625 22.6875 26.425781 L 21.171875 24.726562 C 17.671875 28.046875 12.964844 32.296875 9.769531 34.222656 Z M 9.769531 34.222656 "/></g><path style=" stroke:none;fill-rule:nonzero;fill:#ff6b35;fill-opacity:1;" d="M 27.300781 21.699219 C 28.097656 20.84375 28.953125 20.515625 29.535156 20.386719 C 29.902344 20.3125 30.265625 20.34375 30.636719 20.378906 C 34.347656 20.828125 37.894531 16.496094 37.894531 16.496094 C 43.347656 10.980469 39.800781 7.699219 39.800781 7.699219 C 39.800781 7.699219 36.523438 4.148438 31 9.601562 C 31 9.601562 26.785156 13.242188 27.117188 16.882812 C 27.148438 17.21875 27.191406 17.558594 27.125 17.882812 C 27.011719 18.46875 26.691406 19.371094 25.796875 20.199219 C 25.699219 20.289062 25.0625 20.941406 24.066406 21.917969 L 25.660156 23.347656 C 26.59375 22.398438 27.207031 21.789062 27.300781 21.699219 Z M 27.300781 21.699219 "/></g></svg>