<svg xmlns="http://www.w3.org/2000/svg" xmlns:xlink="http://www.w3.org/1999/xlink" width="64" zoomAndPan="magnify" viewBox="0 0 48 48" height="64" preserveAspectRatio="xMidYMid meet" version="1.2"><defs><clipPath id="74a44e2eae"><path d="M 5.191406 4.703125 L 42.660156 4.703125 L 42.660156 42.171875 L 5.191406 42.171875 Z M 5.191406 4.703125 "/></clipPath></defs><g id="4491c1047a"><g clip-rule="nonzero" clip-path="url(#74a44e2eae)"><path style=" stroke:none;fill-rule:nonzero;fill:#ff6b35;fill-opacity:1;" d="M 42.660156 30.542969 C 42.660156 29.402344 41.574219 28.070312 40.242188 27.578125 C 39.394531 27.261719 37.75 27.023438 36.09375 28.808594 C 35.773438 28.59375 35.574219 28.375 35.574219 28.140625 L 35.574219 26.816406 C 36.882812 25.585938 37.890625 23.421875 37.890625 20.835938 C 37.890625 19.8125 37.746094 18.332031 37.066406 17.085938 C 36.269531 15.632812 34.964844 14.898438 33.191406 14.898438 C 31.417969 14.898438 30.113281 15.632812 29.316406 17.085938 C 28.632812 18.332031 28.492188 19.8125 28.492188 20.835938 C 28.492188 21.109375 28.503906 21.378906 28.523438 21.644531 C 27.921875 21.242188 27.269531 20.921875 26.679688 20.636719 C 25.714844 20.164062 24.882812 19.757812 24.882812 19.273438 L 24.882812 18.191406 C 26.378906 16.8125 27.542969 14.347656 27.542969 11.394531 C 27.542969 10.242188 27.382812 8.570312 26.609375 7.164062 C 25.714844 5.53125 24.25 4.703125 22.253906 4.703125 C 20.261719 4.703125 18.792969 5.53125 17.898438 7.164062 C 17.128906 8.570312 16.96875 10.242188 16.96875 11.394531 C 16.96875 12.160156 17.046875 12.910156 17.195312 13.632812 C 17.074219 13.550781 16.949219 13.472656 16.820312 13.398438 C 15.113281 12.433594 13.136719 12.589844 11.542969 13.816406 C 9.820312 15.136719 9.101562 17.25 9.460938 19.933594 C 9.59375 20.902344 9.839844 21.777344 10.0625 22.425781 C 8.144531 23.371094 6.929688 24.664062 6.625 26.082031 C 6.410156 27.074219 6.648438 28.058594 7.292969 28.875 C 6.234375 31.683594 5.191406 35.953125 5.191406 41.875 C 5.191406 42.039062 5.324219 42.171875 5.488281 42.171875 L 41.292969 42.171875 C 41.449219 42.171875 41.578125 42.050781 41.589844 41.894531 C 41.605469 41.648438 41.984375 35.832031 41.21875 33.039062 C 41.140625 32.753906 41.03125 32.488281 40.898438 32.242188 C 41.539062 32.070312 42.660156 31.613281 42.660156 30.542969 Z M 29.839844 17.375 C 30.523438 16.125 31.652344 15.492188 33.191406 15.492188 C 34.730469 15.492188 35.859375 16.125 36.542969 17.375 C 37.199219 18.566406 37.296875 20.058594 37.296875 20.835938 C 37.296875 24.488281 35.089844 27.320312 33.191406 27.320312 C 31.292969 27.320312 29.085938 24.488281 29.085938 20.835938 C 29.085938 20.058594 29.183594 18.566406 29.839844 17.375 Z M 26.417969 21.167969 C 27.140625 21.523438 27.953125 21.921875 28.625 22.453125 C 28.941406 24.316406 29.78125 25.855469 30.804688 26.816406 L 30.804688 28.140625 C 30.804688 28.621094 29.972656 29.027344 29.007812 29.5 C 27.980469 30 26.707031 30.621094 25.886719 31.640625 C 25.855469 31.640625 25.820312 31.644531 25.785156 31.644531 C 26.378906 30.449219 26.691406 29.0625 26.691406 27.609375 C 26.691406 26.585938 26.546875 25.105469 25.863281 23.859375 C 25.066406 22.40625 23.765625 21.667969 21.988281 21.667969 C 20.925781 21.667969 20.035156 21.933594 19.316406 22.457031 C 19.539062 21.730469 19.703125 20.894531 19.808594 19.957031 C 19.867188 19.414062 19.871094 18.878906 19.824219 18.359375 C 20.601562 19.011719 21.457031 19.375 22.253906 19.375 C 22.929688 19.375 23.628906 19.125 24.285156 18.671875 L 24.285156 19.273438 C 24.285156 20.128906 25.273438 20.613281 26.417969 21.167969 Z M 25.089844 31.691406 C 23.003906 31.84375 21.007812 32.167969 20.429688 32.265625 C 20.140625 31.96875 19.339844 31.160156 18.269531 30.21875 C 18.015625 29.394531 17.882812 28.515625 17.882812 27.609375 C 17.882812 26.828125 17.980469 25.339844 18.636719 24.144531 C 19.320312 22.898438 20.449219 22.265625 21.988281 22.265625 C 23.53125 22.265625 24.65625 22.898438 25.34375 24.144531 C 26 25.339844 26.097656 26.828125 26.097656 27.609375 C 26.097656 29.464844 25.566406 30.832031 25.089844 31.691406 Z M 18.421875 7.449219 C 19.203125 6.019531 20.492188 5.296875 22.253906 5.296875 C 24.015625 5.296875 25.304688 6.019531 26.089844 7.449219 C 26.835938 8.8125 26.949219 10.507812 26.949219 11.394531 C 26.949219 13.402344 26.382812 15.304688 25.351562 16.75 C 24.449219 18.023438 23.292969 18.78125 22.253906 18.78125 C 21.417969 18.78125 20.476562 18.273438 19.667969 17.382812 C 19.386719 16.167969 18.800781 15.085938 17.96875 14.265625 C 17.699219 13.355469 17.5625 12.390625 17.5625 11.394531 C 17.5625 10.507812 17.671875 8.8125 18.421875 7.449219 Z M 7.207031 26.207031 C 7.46875 24.984375 8.550781 23.847656 10.265625 22.988281 C 10.328125 23.148438 10.386719 23.277344 10.425781 23.375 C 10.035156 23.796875 8.953125 25.085938 7.863281 27.496094 C 7.761719 27.722656 7.660156 27.960938 7.554688 28.214844 C 7.179688 27.601562 7.054688 26.90625 7.207031 26.207031 Z M 14.789062 41.578125 L 5.789062 41.578125 C 5.828125 34.882812 7.21875 30.386719 8.390625 27.78125 C 9.671875 24.921875 10.972656 23.664062 10.988281 23.652344 C 11.082031 23.5625 11.105469 23.425781 11.050781 23.308594 C 11.042969 23.292969 10.300781 21.734375 10.050781 19.839844 C 9.71875 17.355469 10.34375 15.484375 11.902344 14.289062 C 13.324219 13.195312 15.011719 13.058594 16.527344 13.917969 C 18.445312 14.996094 19.5 17.34375 19.214844 19.890625 C 18.898438 22.71875 18.007812 24.582031 16.707031 25.136719 C 15.679688 25.574219 14.398438 25.210938 12.902344 24.0625 C 12.769531 23.960938 12.585938 23.988281 12.484375 24.117188 C 12.382812 24.246094 12.410156 24.433594 12.539062 24.535156 C 13.015625 24.898438 13.472656 25.191406 13.914062 25.410156 C 14.085938 25.898438 14.238281 26.535156 14.367188 27.304688 C 13.441406 26.757812 12.511719 26.332031 11.652344 26.152344 C 11.492188 26.117188 11.335938 26.21875 11.300781 26.378906 C 11.269531 26.539062 11.371094 26.699219 11.53125 26.734375 C 15.011719 27.46875 20.0625 32.738281 20.113281 32.789062 C 20.179688 32.863281 20.28125 32.894531 20.378906 32.878906 C 20.441406 32.867188 26.6875 31.773438 29.308594 32.390625 C 29.96875 32.542969 30.390625 32.914062 30.40625 33.359375 C 30.425781 33.921875 29.828125 34.480469 28.882812 34.78125 C 26.925781 35.398438 21.835938 36.277344 19.683594 36.277344 C 18.257812 36.277344 12.621094 32.09375 10.566406 30.480469 C 10.4375 30.378906 10.25 30.402344 10.148438 30.53125 C 10.050781 30.660156 10.070312 30.847656 10.199219 30.949219 C 10.609375 31.269531 12.710938 32.910156 14.878906 34.382812 C 14.933594 37.636719 14.828125 40.660156 14.789062 41.578125 Z M 17.484375 29.550781 C 16.730469 28.925781 15.894531 28.28125 15.035156 27.71875 C 14.921875 26.933594 14.785156 26.261719 14.628906 25.707031 C 15.472656 25.988281 16.246094 25.980469 16.941406 25.683594 C 17.15625 25.589844 17.359375 25.472656 17.554688 25.328125 C 17.34375 26.15625 17.289062 26.972656 17.289062 27.609375 C 17.289062 28.273438 17.355469 28.921875 17.484375 29.550781 Z M 15.480469 34.785156 C 16.113281 35.203125 16.742188 35.597656 17.320312 35.925781 C 16.589844 36.515625 15.972656 37.203125 15.476562 37.980469 C 15.492188 37.003906 15.496094 35.914062 15.480469 34.785156 Z M 15.382812 41.578125 C 15.402344 41.152344 15.433594 40.328125 15.457031 39.253906 C 16.011719 38.058594 16.828125 37.042969 17.890625 36.234375 C 18.640625 36.628906 19.277344 36.875 19.683594 36.875 C 21.078125 36.875 23.671875 36.511719 25.894531 36.089844 C 28.539062 37.992188 29.089844 40.679688 29.199219 41.578125 Z M 41.011719 41.578125 L 38.265625 41.578125 L 38.265625 35.75 C 38.265625 35.585938 38.132812 35.453125 37.96875 35.453125 C 37.804688 35.453125 37.671875 35.585938 37.671875 35.75 L 37.671875 41.578125 L 29.800781 41.578125 C 29.710938 40.695312 29.226562 38.007812 26.671875 35.933594 C 27.636719 35.734375 28.484375 35.53125 29.0625 35.347656 C 30.53125 34.882812 31.023438 34.003906 31 33.335938 C 30.972656 32.613281 30.375 32.027344 29.445312 31.808594 C 28.71875 31.640625 27.753906 31.589844 26.722656 31.609375 C 27.441406 30.925781 28.402344 30.457031 29.269531 30.035156 C 30.414062 29.476562 31.402344 28.992188 31.402344 28.140625 L 31.402344 27.300781 C 31.980469 27.695312 32.59375 27.914062 33.191406 27.914062 C 33.785156 27.914062 34.402344 27.695312 34.980469 27.300781 L 34.980469 28.140625 C 34.980469 28.992188 35.96875 29.476562 37.113281 30.035156 C 38.484375 30.703125 40.1875 31.535156 40.644531 33.195312 C 41.292969 35.558594 41.078125 40.371094 41.011719 41.578125 Z M 40.554688 31.714844 C 39.742188 30.65625 38.460938 30.03125 37.375 29.5 C 37.105469 29.367188 36.851562 29.242188 36.617188 29.121094 C 37.660156 28.050781 38.863281 27.699219 40.035156 28.136719 C 41.25 28.585938 42.066406 29.742188 42.066406 30.542969 C 42.066406 31.308594 40.984375 31.621094 40.554688 31.714844 Z M 40.554688 31.714844 "/></g></g></svg>