<svg xmlns="http://www.w3.org/2000/svg" xmlns:xlink="http://www.w3.org/1999/xlink" width="64" zoomAndPan="magnify" viewBox="0 0 48 48" height="64" preserveAspectRatio="xMidYMid meet" version="1.2"><defs><clipPath id="4aef19925e"><path d="M 5 4 L 43 4 L 43 43 L 5 43 Z M 5 4 "/></clipPath><clipPath id="1b3c181b08"><path d="M 13.359375 0.898438 L 46.605469 34.148438 L 34.65625 46.097656 L 1.410156 12.847656 Z M 13.359375 0.898438 "/></clipPath><clipPath id="a35d7d6b4c"><path d="M 13.359375 0.898438 L 46.605469 34.148438 L 34.65625 46.097656 L 1.410156 12.847656 Z M 13.359375 0.898438 "/></clipPath><clipPath id="a007b87968"><path d="M 15.253906 2.796875 L 44.78125 32.324219 L 32.832031 44.269531 L 3.304688 14.746094 Z M 15.253906 2.796875 "/></clipPath><clipPath id="92d587abf3"><path d="M 9 8 L 39 8 L 39 39 L 9 39 Z M 9 8 "/></clipPath><clipPath id="a5812fd8ad"><path d="M 13.359375 0.898438 L 46.605469 34.148438 L 34.65625 46.097656 L 1.410156 12.847656 Z M 13.359375 0.898438 "/></clipPath><clipPath id="e21a59af3a"><path d="M 13.359375 0.898438 L 46.605469 34.148438 L 34.65625 46.097656 L 1.410156 12.847656 Z M 13.359375 0.898438 "/></clipPath><clipPath id="45bea48790"><path d="M 20.097656 7.640625 L 39.9375 27.476562 L 27.988281 39.425781 L 8.148438 19.589844 Z M 20.097656 7.640625 "/></clipPath><clipPath id="85a6baca77"><path d="M 6 5 L 42 5 L 42 41 L 6 41 Z M 6 5 "/></clipPath><clipPath id="45efc4a44a"><path d="M 13.359375 0.898438 L 46.605469 34.148438 L 34.65625 46.097656 L 1.410156 12.847656 Z M 13.359375 0.898438 "/></clipPath><clipPath id="e62a8eb012"><path d="M 13.359375 0.898438 L 46.605469 34.148438 L 34.65625 46.097656 L 1.410156 12.847656 Z M 13.359375 0.898438 "/></clipPath><clipPath id="2487fd6293"><path d="M 8.796875 5.566406 L 41.890625 38.660156 L 39.351562 41.195312 L 6.257812 8.101562 Z M 8.796875 5.566406 "/></clipPath><clipPath id="d583854fa0"><path d="M 6 3 L 44 3 L 44 42 L 6 42 Z M 6 3 "/></clipPath><clipPath id="901bf46f17"><path d="M 2.292969 33.246094 L 35.542969 0 L 47.492188 11.949219 L 14.242188 45.195312 Z M 2.292969 33.246094 "/></clipPath><clipPath id="892d3a6465"><path d="M 2.292969 33.246094 L 35.542969 0 L 47.492188 11.949219 L 14.242188 45.195312 Z M 2.292969 33.246094 "/></clipPath><clipPath id="c3fa068d46"><path d="M 4.191406 31.351562 L 33.714844 1.824219 L 45.664062 13.773438 L 16.140625 43.300781 Z M 4.191406 31.351562 "/></clipPath><clipPath id="c3b145be29"><path d="M 9 7 L 40 7 L 40 38 L 9 38 Z M 9 7 "/></clipPath><clipPath id="c022c31f23"><path d="M 2.292969 33.246094 L 35.542969 0 L 47.492188 11.949219 L 14.242188 45.195312 Z M 2.292969 33.246094 "/></clipPath><clipPath id="8588fd037e"><path d="M 2.292969 33.246094 L 35.542969 0 L 47.492188 11.949219 L 14.242188 45.195312 Z M 2.292969 33.246094 "/></clipPath><clipPath id="94b097a3e1"><path d="M 9.035156 26.507812 L 28.871094 6.667969 L 40.820312 18.617188 L 20.984375 38.457031 Z M 9.035156 26.507812 "/></clipPath><clipPath id="56cc0bc8a7"><path d="M 7 5 L 43 5 L 43 41 L 7 41 Z M 7 5 "/></clipPath><clipPath id="b8e0dd4468"><path d="M 2.292969 33.246094 L 35.542969 0 L 47.492188 11.949219 L 14.242188 45.195312 Z M 2.292969 33.246094 "/></clipPath><clipPath id="6e7c954b6f"><path d="M 2.292969 33.246094 L 35.542969 0 L 47.492188 11.949219 L 14.242188 45.195312 Z M 2.292969 33.246094 "/></clipPath><clipPath id="de3657562c"><path d="M 6.960938 37.808594 L 40.054688 4.714844 L 42.589844 7.253906 L 9.496094 40.347656 Z M 6.960938 37.808594 "/></clipPath></defs><g id="630941e301"><g clip-rule="nonzero" clip-path="url(#4aef19925e)"><g clip-rule="nonzero" clip-path="url(#1b3c181b08)"><g clip-rule="nonzero" clip-path="url(#a35d7d6b4c)"><g clip-rule="nonzero" clip-path="url(#a007b87968)"><path style=" stroke:none;fill-rule:nonzero;fill:#ff6b35;fill-opacity:1;" d="M 27.746094 39.1875 L 29.402344 40.84375 C 29.9375 40.902344 32.492188 39.460938 36.230469 35.722656 C 39.96875 31.984375 41.410156 29.429688 41.351562 28.894531 L 39.695312 27.238281 C 38.839844 29.5625 35.023438 33.4375 34.484375 33.976562 C 33.945312 34.511719 30.074219 38.332031 27.746094 39.1875 Z M 36.917969 36.410156 C 36.496094 36.835938 33.988281 39.308594 31.808594 40.75 L 33.234375 42.175781 C 33.726562 42.148438 35.753906 40.949219 38.605469 38.097656 C 41.460938 35.246094 42.65625 33.21875 42.683594 32.726562 L 41.257812 31.300781 C 39.816406 33.480469 37.347656 35.984375 36.917969 36.410156 Z M 11.734375 11.226562 C 7.996094 14.964844 6.554688 17.515625 6.613281 18.054688 L 8.269531 19.707031 C 9.125 17.382812 12.941406 13.511719 13.480469 12.972656 C 14.019531 12.433594 17.890625 8.617188 20.21875 7.761719 L 18.5625 6.105469 C 18.027344 6.042969 15.472656 7.484375 11.734375 11.226562 Z M 14.730469 4.769531 L 16.15625 6.195312 C 13.976562 7.640625 11.472656 10.109375 11.046875 10.535156 C 10.621094 10.960938 8.148438 13.464844 6.707031 15.644531 L 5.28125 14.21875 C 5.308594 13.730469 6.503906 11.703125 9.359375 8.851562 C 12.210938 5.996094 14.238281 4.800781 14.730469 4.769531 "/></g></g></g></g><g clip-rule="nonzero" clip-path="url(#92d587abf3)"><g clip-rule="nonzero" clip-path="url(#a5812fd8ad)"><g clip-rule="nonzero" clip-path="url(#e21a59af3a)"><g clip-rule="nonzero" clip-path="url(#45bea48790)"><path style=" stroke:none;fill-rule:nonzero;fill:#ff6b35;fill-opacity:1;" d="M 33.910156 31.65625 L 32.164062 33.398438 C 31.675781 33.886719 30.914062 33.921875 30.378906 33.511719 C 28.058594 36.105469 27.070312 37.875 27.03125 38.40625 C 27.6875 38.359375 30.191406 36.890625 33.792969 33.285156 C 37.402344 29.679688 38.871094 27.175781 38.917969 26.523438 C 38.382812 26.5625 36.613281 27.546875 34.023438 29.871094 C 34.429688 30.402344 34.394531 31.167969 33.910156 31.65625 Z M 20.933594 8.539062 C 20.894531 9.074219 19.90625 10.839844 17.585938 13.433594 C 17.054688 13.027344 16.289062 13.058594 15.800781 13.546875 L 14.054688 15.292969 C 13.566406 15.777344 13.535156 16.542969 13.941406 17.078125 C 11.351562 19.398438 9.582031 20.386719 9.050781 20.425781 C 9.09375 19.769531 10.5625 17.265625 14.167969 13.660156 C 17.773438 10.054688 20.277344 8.585938 20.933594 8.539062 "/></g></g></g></g><g clip-rule="nonzero" clip-path="url(#85a6baca77)"><g clip-rule="nonzero" clip-path="url(#45efc4a44a)"><g clip-rule="nonzero" clip-path="url(#e62a8eb012)"><g clip-rule="nonzero" clip-path="url(#2487fd6293)"><path style=" stroke:none;fill-rule:nonzero;fill:#ff6b35;fill-opacity:1;" d="M 14.742188 16.527344 L 30.925781 32.710938 C 31.078125 32.863281 31.324219 32.863281 31.476562 32.710938 L 33.222656 30.964844 C 33.371094 30.816406 33.371094 30.570312 33.222656 30.417969 L 17.035156 14.234375 C 16.886719 14.085938 16.640625 14.085938 16.488281 14.234375 L 14.742188 15.980469 C 14.59375 16.132812 14.59375 16.378906 14.742188 16.527344 Z M 8.21875 6.144531 L 6.652344 7.707031 C 6.453125 7.910156 6.453125 8.234375 6.652344 8.4375 L 7.550781 9.332031 C 8.039062 8.796875 8.457031 8.375 8.667969 8.160156 C 8.886719 7.945312 9.308594 7.53125 9.84375 7.039062 L 8.945312 6.140625 C 8.746094 5.941406 8.417969 5.941406 8.21875 6.144531 Z M 39.292969 38.785156 C 39.507812 38.570312 39.925781 38.148438 40.414062 37.613281 L 41.3125 38.511719 C 41.511719 38.710938 41.511719 39.039062 41.3125 39.238281 L 39.746094 40.804688 C 39.546875 41.003906 39.21875 41.003906 39.019531 40.804688 L 38.121094 39.90625 C 38.65625 39.414062 39.078125 39 39.292969 38.785156 "/></g></g></g></g><g clip-rule="nonzero" clip-path="url(#d583854fa0)"><g clip-rule="nonzero" clip-path="url(#901bf46f17)"><g clip-rule="nonzero" clip-path="url(#892d3a6465)"><g clip-rule="nonzero" clip-path="url(#c3fa068d46)"><path style=" stroke:none;fill-rule:nonzero;fill:#ff6b35;fill-opacity:1;" d="M 40.582031 18.859375 L 42.238281 17.203125 C 42.296875 16.667969 40.855469 14.113281 37.117188 10.375 C 33.378906 6.636719 30.824219 5.195312 30.289062 5.253906 L 28.632812 6.910156 C 30.957031 7.765625 34.832031 11.582031 35.371094 12.121094 C 35.90625 12.660156 39.726562 16.53125 40.582031 18.859375 Z M 37.804688 9.6875 C 38.230469 10.113281 40.703125 12.617188 42.144531 14.796875 L 43.570312 13.371094 C 43.542969 12.878906 42.34375 10.851562 39.492188 8 C 36.640625 5.144531 34.613281 3.949219 34.121094 3.921875 L 32.695312 5.347656 C 34.875 6.789062 37.378906 9.261719 37.804688 9.6875 Z M 12.621094 34.871094 C 16.359375 38.609375 18.910156 40.050781 19.449219 39.992188 L 21.101562 38.335938 C 18.777344 37.480469 14.90625 33.664062 14.367188 33.125 C 13.828125 32.585938 10.011719 28.714844 9.152344 26.386719 L 7.5 28.042969 C 7.4375 28.578125 8.878906 31.132812 12.621094 34.871094 Z M 6.164062 31.875 L 7.589844 30.449219 C 9.035156 32.628906 11.503906 35.132812 11.929688 35.5625 C 12.355469 35.984375 14.859375 38.457031 17.039062 39.898438 L 15.613281 41.324219 C 15.125 41.296875 13.097656 40.101562 10.246094 37.246094 C 7.390625 34.394531 6.195312 32.367188 6.164062 31.875 "/></g></g></g></g><g clip-rule="nonzero" clip-path="url(#c3b145be29)"><g clip-rule="nonzero" clip-path="url(#c022c31f23)"><g clip-rule="nonzero" clip-path="url(#8588fd037e)"><g clip-rule="nonzero" clip-path="url(#94b097a3e1)"><path style=" stroke:none;fill-rule:nonzero;fill:#ff6b35;fill-opacity:1;" d="M 33.050781 12.695312 L 34.792969 14.441406 C 35.28125 14.929688 35.316406 15.695312 34.90625 16.226562 C 37.5 18.546875 39.269531 19.535156 39.800781 19.574219 C 39.753906 18.921875 38.285156 16.417969 34.679688 12.8125 C 31.074219 9.203125 28.570312 7.734375 27.917969 7.6875 C 27.957031 8.222656 28.941406 9.992188 31.265625 12.582031 C 31.796875 12.175781 32.5625 12.210938 33.050781 12.695312 Z M 9.933594 25.671875 C 10.46875 25.710938 12.234375 26.699219 14.828125 29.019531 C 14.417969 29.550781 14.453125 30.320312 14.941406 30.804688 L 16.6875 32.550781 C 17.171875 33.039062 17.9375 33.070312 18.472656 32.664062 C 20.792969 35.253906 21.78125 37.023438 21.820312 37.554688 C 21.164062 37.511719 18.660156 36.042969 15.054688 32.4375 C 11.449219 28.832031 9.980469 26.328125 9.933594 25.671875 "/></g></g></g></g><g clip-rule="nonzero" clip-path="url(#56cc0bc8a7)"><g clip-rule="nonzero" clip-path="url(#b8e0dd4468)"><g clip-rule="nonzero" clip-path="url(#6e7c954b6f)"><g clip-rule="nonzero" clip-path="url(#de3657562c)"><path style=" stroke:none;fill-rule:nonzero;fill:#ff6b35;fill-opacity:1;" d="M 17.921875 31.863281 L 34.105469 15.679688 C 34.257812 15.527344 34.257812 15.28125 34.105469 15.128906 L 32.359375 13.386719 C 32.210938 13.234375 31.964844 13.234375 31.8125 13.386719 L 15.628906 29.570312 C 15.480469 29.71875 15.480469 29.964844 15.628906 30.117188 L 17.375 31.863281 C 17.527344 32.011719 17.773438 32.011719 17.921875 31.863281 Z M 7.539062 38.386719 L 9.101562 39.953125 C 9.304688 40.152344 9.628906 40.152344 9.828125 39.953125 L 10.726562 39.058594 C 10.191406 38.566406 9.769531 38.148438 9.554688 37.9375 C 9.339844 37.71875 8.925781 37.296875 8.433594 36.761719 L 7.535156 37.660156 C 7.335938 37.859375 7.335938 38.1875 7.539062 38.386719 Z M 40.179688 7.3125 C 39.964844 7.097656 39.542969 6.679688 39.007812 6.191406 L 39.90625 5.292969 C 40.105469 5.09375 40.429688 5.09375 40.632812 5.292969 L 42.199219 6.859375 C 42.398438 7.058594 42.398438 7.386719 42.199219 7.585938 L 41.300781 8.484375 C 40.808594 7.949219 40.394531 7.527344 40.179688 7.3125 "/></g></g></g></g></g></svg>