<svg xmlns="http://www.w3.org/2000/svg" xmlns:xlink="http://www.w3.org/1999/xlink" width="64" zoomAndPan="magnify" viewBox="0 0 48 48" height="64" preserveAspectRatio="xMidYMid meet" version="1.2"><defs><clipPath id="b098ce293d"><path d="M 2.003906 34 L 47.507812 34 L 47.507812 38 L 2.003906 38 Z M 2.003906 34 "/></clipPath><clipPath id="84667d0e51"><path d="M 2.003906 39 L 47.507812 39 L 47.507812 42.347656 L 2.003906 42.347656 Z M 2.003906 39 "/></clipPath><clipPath id="f60aae2e74"><path d="M 9 3.410156 L 21 3.410156 L 21 34 L 9 34 Z M 9 3.410156 "/></clipPath><clipPath id="91fabd4e5e"><path d="M 25 3.410156 L 37 3.410156 L 37 34 L 25 34 Z M 25 3.410156 "/></clipPath><clipPath id="cf17af74de"><path d="M 2.003906 17 L 18 17 L 18 19 L 2.003906 19 Z M 2.003906 17 "/></clipPath><clipPath id="3d593ec727"><path d="M 38 17 L 47.507812 17 L 47.507812 19 L 38 19 Z M 38 17 "/></clipPath></defs><g id="91033d09bc"><g clip-rule="nonzero" clip-path="url(#b098ce293d)"><path style=" stroke:none;fill-rule:nonzero;fill:#ff6b35;fill-opacity:1;" d="M 47.09375 37.339844 C 45.929688 37.339844 45.328125 36.851562 44.800781 36.417969 C 44.3125 36.023438 43.898438 35.683594 43.027344 35.683594 C 42.160156 35.683594 41.738281 36.023438 41.257812 36.417969 C 40.722656 36.851562 40.125 37.339844 38.960938 37.339844 C 37.796875 37.339844 37.199219 36.851562 36.667969 36.417969 C 36.1875 36.023438 35.765625 35.683594 34.894531 35.683594 C 34.03125 35.683594 33.613281 36.023438 33.128906 36.417969 C 32.597656 36.851562 32 37.339844 30.835938 37.339844 C 29.671875 37.339844 29.074219 36.851562 28.546875 36.417969 C 28.0625 36.023438 27.644531 35.683594 26.773438 35.683594 C 25.910156 35.683594 25.492188 36.023438 25.007812 36.417969 C 24.476562 36.851562 23.878906 37.339844 22.714844 37.339844 C 21.550781 37.339844 20.953125 36.851562 20.425781 36.417969 C 19.9375 36.023438 19.523438 35.683594 18.652344 35.683594 C 17.785156 35.683594 17.367188 36.023438 16.882812 36.417969 C 16.355469 36.851562 15.753906 37.339844 14.59375 37.339844 C 13.429688 37.339844 12.828125 36.851562 12.300781 36.417969 C 11.816406 36.023438 11.402344 35.683594 10.53125 35.683594 C 9.664062 35.683594 9.25 36.023438 8.765625 36.417969 C 8.238281 36.851562 7.636719 37.339844 6.476562 37.339844 C 5.3125 37.339844 4.714844 36.851562 4.183594 36.417969 C 3.699219 36.023438 3.285156 35.683594 2.414062 35.683594 C 2.1875 35.683594 2.003906 35.5 2.003906 35.273438 C 2.003906 35.042969 2.1875 34.859375 2.414062 34.859375 C 3.578125 34.859375 4.175781 35.347656 4.707031 35.777344 C 5.191406 36.171875 5.609375 36.511719 6.476562 36.511719 C 7.34375 36.511719 7.761719 36.171875 8.242188 35.777344 C 8.773438 35.347656 9.371094 34.859375 10.53125 34.859375 C 11.695312 34.859375 12.296875 35.347656 12.824219 35.777344 C 13.308594 36.171875 13.722656 36.511719 14.59375 36.511719 C 15.460938 36.511719 15.875 36.171875 16.363281 35.777344 C 16.890625 35.347656 17.488281 34.859375 18.652344 34.859375 C 19.816406 34.859375 20.417969 35.347656 20.945312 35.777344 C 21.429688 36.171875 21.847656 36.511719 22.714844 36.511719 C 23.582031 36.511719 24 36.171875 24.484375 35.777344 C 25.011719 35.347656 25.609375 34.859375 26.773438 34.859375 C 27.9375 34.859375 28.539062 35.347656 29.066406 35.777344 C 29.550781 36.171875 29.96875 36.511719 30.835938 36.511719 C 31.707031 36.511719 32.125 36.171875 32.605469 35.777344 C 33.136719 35.347656 33.734375 34.859375 34.894531 34.859375 C 36.058594 34.859375 36.660156 35.347656 37.191406 35.777344 C 37.671875 36.171875 38.09375 36.511719 38.960938 36.511719 C 39.832031 36.511719 40.25 36.171875 40.734375 35.777344 C 41.261719 35.347656 41.863281 34.859375 43.027344 34.859375 C 44.191406 34.859375 44.792969 35.347656 45.324219 35.777344 C 45.808594 36.171875 46.222656 36.511719 47.09375 36.511719 C 47.324219 36.511719 47.507812 36.695312 47.507812 36.925781 C 47.507812 37.15625 47.324219 37.339844 47.09375 37.339844 "/></g><g clip-rule="nonzero" clip-path="url(#84667d0e51)"><path style=" stroke:none;fill-rule:nonzero;fill:#ff6b35;fill-opacity:1;" d="M 47.09375 42.304688 C 45.929688 42.304688 45.328125 41.816406 44.800781 41.382812 C 44.3125 40.988281 43.898438 40.648438 43.027344 40.648438 C 42.160156 40.648438 41.738281 40.988281 41.257812 41.382812 C 40.722656 41.816406 40.125 42.304688 38.960938 42.304688 C 37.796875 42.304688 37.199219 41.816406 36.667969 41.382812 C 36.1875 40.988281 35.765625 40.648438 34.894531 40.648438 C 34.03125 40.648438 33.613281 40.988281 33.128906 41.382812 C 32.597656 41.816406 32 42.304688 30.835938 42.304688 C 29.671875 42.304688 29.074219 41.816406 28.546875 41.382812 C 28.0625 40.988281 27.644531 40.648438 26.773438 40.648438 C 25.910156 40.648438 25.492188 40.988281 25.007812 41.382812 C 24.476562 41.816406 23.878906 42.304688 22.714844 42.304688 C 21.550781 42.304688 20.953125 41.816406 20.425781 41.382812 C 19.9375 40.988281 19.523438 40.648438 18.652344 40.648438 C 17.785156 40.648438 17.367188 40.988281 16.882812 41.382812 C 16.355469 41.816406 15.753906 42.304688 14.59375 42.304688 C 13.429688 42.304688 12.828125 41.816406 12.300781 41.382812 C 11.816406 40.988281 11.402344 40.648438 10.53125 40.648438 C 9.664062 40.648438 9.25 40.988281 8.765625 41.382812 C 8.238281 41.816406 7.636719 42.304688 6.476562 42.304688 C 5.3125 42.304688 4.714844 41.816406 4.183594 41.382812 C 3.699219 40.988281 3.285156 40.648438 2.414062 40.648438 C 2.1875 40.648438 2.003906 40.464844 2.003906 40.234375 C 2.003906 40.007812 2.1875 39.820312 2.414062 39.820312 C 3.578125 39.820312 4.175781 40.308594 4.707031 40.742188 C 5.191406 41.136719 5.609375 41.476562 6.476562 41.476562 C 7.34375 41.476562 7.761719 41.136719 8.242188 40.742188 C 8.773438 40.308594 9.371094 39.820312 10.53125 39.820312 C 11.695312 39.820312 12.296875 40.308594 12.824219 40.742188 C 13.308594 41.136719 13.722656 41.476562 14.59375 41.476562 C 15.460938 41.476562 15.875 41.136719 16.363281 40.742188 C 16.890625 40.308594 17.488281 39.820312 18.652344 39.820312 C 19.816406 39.820312 20.417969 40.308594 20.945312 40.742188 C 21.429688 41.136719 21.847656 41.476562 22.714844 41.476562 C 23.582031 41.476562 24 41.136719 24.484375 40.742188 C 25.011719 40.308594 25.609375 39.820312 26.773438 39.820312 C 27.9375 39.820312 28.539062 40.308594 29.066406 40.742188 C 29.550781 41.136719 29.96875 41.476562 30.835938 41.476562 C 31.707031 41.476562 32.125 41.136719 32.605469 40.742188 C 33.136719 40.308594 33.734375 39.820312 34.894531 39.820312 C 36.058594 39.820312 36.660156 40.308594 37.191406 40.742188 C 37.671875 41.136719 38.09375 41.476562 38.960938 41.476562 C 39.832031 41.476562 40.25 41.136719 40.734375 40.742188 C 41.261719 40.308594 41.863281 39.820312 43.027344 39.820312 C 44.191406 39.820312 44.792969 40.308594 45.324219 40.742188 C 45.808594 41.136719 46.222656 41.476562 47.09375 41.476562 C 47.324219 41.476562 47.507812 41.660156 47.507812 41.890625 C 47.507812 42.121094 47.324219 42.304688 47.09375 42.304688 "/></g><g clip-rule="nonzero" clip-path="url(#f60aae2e74)"><path style=" stroke:none;fill-rule:nonzero;fill:#ff6b35;fill-opacity:1;" d="M 19.789062 33.203125 C 19.5625 33.203125 19.375 33.019531 19.375 32.789062 L 19.375 15.183594 C 19.375 14.300781 19.191406 13.441406 18.828125 12.632812 L 15.8125 5.953125 C 15.808594 5.945312 15.804688 5.9375 15.800781 5.929688 C 15.328125 4.90625 14.296875 4.246094 13.171875 4.246094 C 11.574219 4.246094 10.277344 5.542969 10.277344 7.140625 L 10.277344 15.414062 C 10.277344 15.644531 10.089844 15.828125 9.863281 15.828125 C 9.632812 15.828125 9.449219 15.644531 9.449219 15.414062 L 9.449219 7.140625 C 9.449219 5.089844 11.121094 3.417969 13.171875 3.417969 C 14.628906 3.417969 15.964844 4.28125 16.566406 5.613281 C 16.570312 5.621094 16.574219 5.632812 16.578125 5.636719 L 19.582031 12.289062 C 19.992188 13.207031 20.203125 14.179688 20.203125 15.183594 L 20.203125 32.789062 C 20.203125 33.019531 20.019531 33.203125 19.789062 33.203125 "/></g><g clip-rule="nonzero" clip-path="url(#91fabd4e5e)"><path style=" stroke:none;fill-rule:nonzero;fill:#ff6b35;fill-opacity:1;" d="M 36.335938 33.203125 C 36.109375 33.203125 35.925781 33.019531 35.925781 32.789062 L 35.925781 15.183594 C 35.925781 14.300781 35.738281 13.441406 35.375 12.632812 L 32.359375 5.953125 C 32.355469 5.945312 32.351562 5.9375 32.351562 5.929688 C 31.875 4.90625 30.84375 4.246094 29.71875 4.246094 C 28.121094 4.246094 26.824219 5.542969 26.824219 7.140625 L 26.824219 15.414062 C 26.824219 15.644531 26.640625 15.828125 26.410156 15.828125 C 26.179688 15.828125 25.996094 15.644531 25.996094 15.414062 L 25.996094 7.140625 C 25.996094 5.089844 27.667969 3.417969 29.71875 3.417969 C 31.175781 3.417969 32.511719 4.28125 33.117188 5.613281 C 33.117188 5.621094 33.121094 5.632812 33.125 5.636719 L 36.128906 12.289062 C 36.542969 13.207031 36.75 14.179688 36.75 15.183594 L 36.75 32.789062 C 36.75 33.019531 36.566406 33.203125 36.335938 33.203125 "/></g><g clip-rule="nonzero" clip-path="url(#cf17af74de)"><path style=" stroke:none;fill-rule:nonzero;fill:#ff6b35;fill-opacity:1;" d="M 17.308594 18.3125 L 2.414062 18.3125 C 2.1875 18.3125 2.003906 18.125 2.003906 17.898438 C 2.003906 17.667969 2.1875 17.484375 2.414062 17.484375 L 17.308594 17.484375 C 17.539062 17.484375 17.722656 17.667969 17.722656 17.898438 C 17.722656 18.125 17.539062 18.3125 17.308594 18.3125 "/></g><path style=" stroke:none;fill-rule:nonzero;fill:#ff6b35;fill-opacity:1;" d="M 33.855469 18.3125 L 22.273438 18.3125 C 22.042969 18.3125 21.859375 18.125 21.859375 17.898438 C 21.859375 17.667969 22.042969 17.484375 22.273438 17.484375 L 33.855469 17.484375 C 34.085938 17.484375 34.269531 17.667969 34.269531 17.898438 C 34.269531 18.125 34.085938 18.3125 33.855469 18.3125 "/><g clip-rule="nonzero" clip-path="url(#3d593ec727)"><path style=" stroke:none;fill-rule:nonzero;fill:#ff6b35;fill-opacity:1;" d="M 47.09375 18.3125 L 38.820312 18.3125 C 38.589844 18.3125 38.40625 18.125 38.40625 17.898438 C 38.40625 17.667969 38.589844 17.484375 38.820312 17.484375 L 47.09375 17.484375 C 47.324219 17.484375 47.507812 17.667969 47.507812 17.898438 C 47.507812 18.125 47.324219 18.3125 47.09375 18.3125 "/></g><path style=" stroke:none;fill-rule:nonzero;fill:#ff6b35;fill-opacity:1;" d="M 36.335938 24.101562 L 19.789062 24.101562 C 19.5625 24.101562 19.375 23.917969 19.375 23.6875 C 19.375 23.460938 19.5625 23.273438 19.789062 23.273438 L 36.335938 23.273438 C 36.566406 23.273438 36.75 23.460938 36.75 23.6875 C 36.75 23.917969 36.566406 24.101562 36.335938 24.101562 "/><path style=" stroke:none;fill-rule:nonzero;fill:#ff6b35;fill-opacity:1;" d="M 36.335938 29.894531 L 19.789062 29.894531 C 19.5625 29.894531 19.375 29.710938 19.375 29.480469 C 19.375 29.25 19.5625 29.066406 19.789062 29.066406 L 36.335938 29.066406 C 36.566406 29.066406 36.75 29.25 36.75 29.480469 C 36.75 29.710938 36.566406 29.894531 36.335938 29.894531 "/></g></svg>