<svg xmlns="http://www.w3.org/2000/svg" xmlns:xlink="http://www.w3.org/1999/xlink" width="64" zoomAndPan="magnify" viewBox="0 0 48 48" height="64" preserveAspectRatio="xMidYMid meet" version="1.2"><defs><clipPath id="521afcdb30"><path d="M 6 4.703125 L 43 4.703125 L 43 42 L 6 42 Z M 6 4.703125 "/></clipPath></defs><g id="8ffffe260c"><g clip-rule="nonzero" clip-path="url(#521afcdb30)"><path style=" stroke:none;fill-rule:nonzero;fill:#ff6b35;fill-opacity:1;" d="M 24.496094 15.132812 C 23.050781 14.382812 21.734375 13.5625 20.804688 12.503906 C 19.890625 11.460938 19.414062 10.164062 19.472656 8.410156 C 19.675781 6.925781 20.386719 5.941406 21.902344 5.59375 C 23.148438 5.320312 24.207031 5.484375 25.046875 6.011719 C 25.910156 6.542969 26.507812 7.457031 26.804688 8.683594 C 26.878906 8.957031 26.933594 9.230469 26.984375 9.523438 C 27.335938 11.207031 27.699219 13.035156 29.542969 13.585938 C 29.726562 13.636719 29.945312 13.695312 30.167969 13.746094 C 31.609375 14.148438 32.871094 14.644531 33.640625 16.636719 C 35.046875 20.277344 36.054688 25.578125 39.507812 27.53125 C 36.289062 24.554688 35.816406 19.835938 34.425781 16.253906 C 33.546875 13.984375 31.917969 13.601562 30.332031 13.164062 C 30.128906 13.113281 29.945312 13.054688 29.726562 12.984375 C 28.226562 12.546875 27.898438 10.902344 27.585938 9.417969 C 27.53125 9.109375 27.476562 8.832031 27.40625 8.539062 C 27.074219 7.167969 26.363281 6.109375 25.375 5.488281 C 24.40625 4.882812 23.164062 4.703125 21.773438 5.011719 C 20.1875 5.359375 18.886719 6.726562 18.667969 8.339844 C 18.539062 9.984375 19.273438 11.683594 20.351562 12.910156 C 21.339844 14.058594 22.726562 14.902344 24.222656 15.6875 L 24.242188 15.6875 C 26.382812 16.660156 27.296875 14.921875 27.496094 13.164062 C 26.945312 14.40625 26.378906 15.957031 24.496094 15.132812 Z M 24.625 25.117188 C 23.21875 26.875 21.097656 28.539062 20.367188 30.933594 C 21.210938 29.488281 23.492188 27.273438 24.992188 25.59375 C 26.546875 23.878906 26.875 22.414062 27.132812 20.476562 C 27.441406 18.0625 27.3125 15.851562 29.636719 14.753906 C 27.535156 14.972656 26.898438 17.585938 26.4375 20.015625 C 26.03125 22.136719 25.992188 23.398438 24.625 25.117188 Z M 39.523438 32.882812 C 37.875 34.144531 35.625 34.65625 33.960938 34.601562 C 29.628906 34.417969 27.273438 31.257812 23.632812 30.984375 C 22.097656 30.855469 20.800781 31.292969 19.957031 32.132812 C 19.355469 32.644531 18.972656 32.976562 18.605469 32.917969 C 18.257812 32.882812 17.890625 32.5 17.359375 31.65625 C 16.832031 30.816406 15.953125 30.34375 15.003906 30.15625 C 12.664062 29.738281 10.527344 30.523438 10.066406 33.066406 C 9.757812 34.855469 10.910156 36.300781 12.226562 37.234375 C 11.074219 35.917969 10.449219 34.453125 10.671875 33.15625 C 11.019531 31.3125 13.195312 30.453125 14.894531 30.761719 C 15.679688 30.90625 16.410156 31.292969 16.847656 31.988281 C 17.472656 32.996094 17.964844 33.46875 18.53125 33.542969 C 19.09375 33.617188 19.589844 33.175781 20.355469 32.554688 C 21.289062 31.695312 22.351562 31.710938 23.574219 31.804688 C 27.796875 32.132812 29.808594 34.984375 33.867188 35.164062 C 35.792969 35.242188 38.5 34.164062 39.523438 32.882812 Z M 10.382812 35.882812 C 8.0625 37.054688 6.707031 39.175781 6.253906 40.140625 C 5.648438 41.402344 6.125 42.171875 8.097656 41.914062 C 10.382812 41.640625 12.449219 40.816406 14.441406 40.175781 C 17.660156 39.136719 20.347656 38.09375 23.945312 38.992188 C 21.386719 37.378906 17.164062 38.734375 14.292969 39.664062 C 12.339844 40.304688 10.398438 40.800781 8.167969 41.074219 C 6.980469 41.21875 6.597656 40.964844 6.890625 40.359375 C 7.789062 38.28125 8.8125 37.199219 10.382812 35.882812 Z M 18.613281 38.828125 C 19.542969 38.863281 19.925781 39.390625 20.511719 39.742188 C 21.445312 40.289062 22.5625 40.652344 25.121094 40.710938 C 27.730469 40.746094 30.550781 40.582031 33.308594 40.507812 C 36.433594 40.414062 40.402344 40.398438 42.796875 39.503906 C 40.234375 39.960938 36.105469 39.9375 33.292969 40.015625 C 30.53125 40.089844 27.695312 39.976562 25.085938 39.921875 C 22.671875 39.867188 21.648438 39.683594 20.75 39.207031 C 19.78125 38.714844 19.414062 38.554688 18.613281 38.828125 Z M 30.964844 18.609375 C 30.601562 23.34375 28.078125 26.855469 24.988281 30.015625 C 28.867188 27.089844 31.515625 24.625 30.964844 18.609375 Z M 30.015625 32.265625 C 31.242188 30.492188 31.316406 28.007812 29.742188 26.527344 C 30.804688 28.113281 30.253906 31.039062 30.015625 32.265625 Z M 22.230469 25.957031 C 24.714844 23.414062 24.351562 18.953125 26.308594 16.632812 C 23.875 18.167969 23.820312 23.125 22.230469 25.957031 Z M 20.566406 34.457031 C 18.464844 34.714844 15.902344 36.046875 14.316406 36.941406 C 13.179688 37.582031 12.121094 38.042969 10.894531 38.515625 C 8.792969 39.355469 9.90625 37.507812 10.714844 36.429688 C 9.160156 37.453125 7.753906 40.527344 10.953125 39.265625 C 12.230469 38.753906 13.417969 38.003906 14.554688 37.378906 C 16.582031 36.230469 18.519531 35.152344 20.566406 34.457031 Z M 20.566406 34.457031 "/></g></g></svg>